<svg width="256" height="256" viewBox="0 0 256 256" fill="none" xmlns="http://www.w3.org/2000/svg">
  <!-- Background -->
  <rect width="256" height="256" fill="white" />
  
  <!-- Tux body -->
  <path d="M128 36C94.5 36 84 70 84 108C84 146 94 170 94 186C94 202 86 212 86 212C86 212 98 226 128 226C158 226 170 212 170 212C170 212 162 202 162 186C162 170 172 146 172 108C172 70 161.5 36 128 36Z" fill="black" />
  
  <!-- White belly -->
  <path d="M128 186C113.2 186 101 176.6 101 165C101 153.4 113.2 144 128 144C142.8 144 155 153.4 155 165C155 176.6 142.8 186 128 186Z" fill="white" />
  
  <!-- Eyes -->
  <ellipse cx="108" cy="106" rx="10" ry="14" fill="white" />
  <ellipse cx="148" cy="106" rx="10" ry="14" fill="white" />
  <ellipse cx="108" cy="106" rx="6" ry="8" fill="black" />
  <ellipse cx="148" cy="106" rx="6" ry="8" fill="black" />
  
  <!-- Beak/nose -->
  <path d="M128 116C121 116 115 122 115 128C115 134 121 142 128 142C135 142 141 134 141 128C141 122 135 116 128 116Z" fill="#F7DF1E" />
  
  <!-- Feet -->
  <path d="M103 212C103 212 93 222 98 232C103 242 113 242 118 232C123 222 103 212 103 212Z" fill="#F7DF1E" />
  <path d="M153 212C153 212 143 222 148 232C153 242 163 242 168 232C173 222 153 212 153 212Z" fill="#F7DF1E" />
  
  <!-- Arms/flippers -->
  <path d="M86 160C86 160 66 165 61 175C56 185 61 195 71 195C81 195 96 185 86 160Z" fill="black" />
  <path d="M170 160C170 160 190 165 195 175C200 185 195 195 185 195C175 195 160 185 170 160Z" fill="black" />
</svg>